# xmcd
#
# Track frame offsets: 
#        150
#        28405
#        55061
#        82251
#        111648
#        134246
#        158645
#        184896
#        212321
#        238083
#        254928
#        281364
#        307028
#
# Disc length: 4274 seconds
#
# Revision: 0
# Processed by: cddbd v1.5.2PL0 Copyright (c) Steve Scherf et al.
# Submitted via: ExactAudioCopyFreeDBPlugin 1.0
#
DISCID=ce10b00d
DTITLE=To Be Continued Brass Band - Magic City
DYEAR=2012
DGENRE=New Orleans Brass Band
TTITLE0=Always There
TTITLE1=Wipe Me Down
TTITLE2=Back Stabbers
TTITLE3=Those Gurlz
TTITLE4=Sticky Icky
TTITLE5=B.L.B
TTITLE6=Inner City Blues
TTITLE7=Let's Play It
TTITLE8=I'll Fly Away
TTITLE9=St. James Infirmary
TTITLE10=Let's Go Get 'Em
TTITLE11=I'll Play The Blues For You
TTITLE12=It's So Hard To Say Good Bye
EXTD=
EXTT0=
EXTT1=
EXTT2=
EXTT3=
EXTT4=
EXTT5=
EXTT6=
EXTT7=
EXTT8=
EXTT9=
EXTT10=
EXTT11=
EXTT12=
PLAYORDER=
